<?xml version="1.0" standalone="no"?>
<!DOCTYPE svg PUBLIC "-//W3C//DTD SVG 20010904//EN"
 "http://www.w3.org/TR/2001/REC-SVG-20010904/DTD/svg10.dtd">
<svg version="1.0" xmlns="http://www.w3.org/2000/svg"
 width="250.000000pt" height="250.000000pt" viewBox="0 0 250.000000 250.000000"
 preserveAspectRatio="xMidYMid meet">
<metadata>
Created by potrace 1.11, written by Peter Selinger 2001-2013
</metadata>
<g transform="translate(0.000000,250.000000) scale(0.100000,-0.100000)"
fill="#000000" stroke="none">
<path d="M749 2184 c-9 -11 -3 -23 24 -53 24 -27 38 -53 42 -83 6 -41 0 -211
-10 -285 -3 -18 -7 -48 -9 -65 -14 -100 -37 -255 -41 -268 -2 -8 -7 -35 -10
-60 -3 -25 -8 -52 -10 -60 -2 -8 -6 -37 -10 -65 -3 -27 -8 -63 -10 -80 -31
-222 -39 -336 -39 -540 -1 -199 6 -245 44 -285 34 -36 87 -41 114 -11 27 30
27 128 -1 261 -13 63 -25 129 -28 145 -27 186 -27 584 0 755 2 14 6 48 10 75
3 28 7 66 10 85 4 31 13 120 20 190 2 14 4 43 4 65 2 53 15 31 43 -72 20 -74
21 -105 23 -583 1 -278 4 -514 7 -525 3 -11 9 -45 13 -75 20 -149 72 -291 122
-330 32 -25 94 -26 129 -4 53 35 57 63 59 389 2 276 7 396 20 468 3 15 7 37 9
50 15 86 68 251 153 485 59 160 69 179 76 155 8 -28 2 -246 -7 -274 -3 -8 -7
-30 -10 -49 -3 -20 -23 -108 -45 -196 -21 -88 -42 -185 -46 -214 -4 -30 -8
-57 -10 -60 -2 -3 -6 -30 -9 -60 -41 -390 -11 -620 87 -680 27 -17 51 -20 149
-20 114 0 119 1 149 28 49 43 60 107 54 292 -3 85 -8 171 -10 190 -8 64 -7
194 1 345 10 175 11 472 1 566 -26 249 -85 437 -145 460 -15 6 -82 9 -152 7
-109 -3 -125 -5 -128 -20 -2 -12 3 -18 16 -18 10 0 26 -8 35 -17 21 -24 36
-116 30 -183 -2 -30 -5 -61 -5 -69 -1 -8 -41 -94 -89 -190 -80 -161 -88 -174
-94 -146 -80 346 -149 541 -214 613 l-31 33 -135 -2 c-99 -1 -138 -6 -146 -15z"/>
</g>
</svg>
